<?xml version="1.0" encoding="UTF-8" standalone="no"?>
<svg xmlns:rdf="http://www.w3.org/1999/02/22-rdf-syntax-ns#" xmlns="http://www.w3.org/2000/svg" xml:space="preserve" height="118.7" viewBox="0 0 299.79703 118.7025" width="299.8" version="1.1" xmlns:cc="http://creativecommons.org/ns#" xmlns:dc="http://purl.org/dc/elements/1.1/"><g transform="matrix(0 1.25 1.25 0 -1000.2 -229.49)"><g><path d="m44.533 1.2969c-2.76 0-5.583 0.2874-8.387 0.8574-18.621 3.7725-31.389 22.687-33.951 38.569-5.6972 35.332 10.879 64.727 29.506 71.687 3.134 1.18 6.712 1.8 10.346 1.8 5.435 0 10.609-1.39 14.57-3.91 7.564-4.82 13.462-10.913 17.6-18.169 0.764 6.187 2.696 11.159 5.775 14.829 3.913 4.68 9.531 7.15 16.248 7.15 5.38 0 10.45-1.6 13.47-3.3 3.01 2.06 6.99 3.31 10.69 3.32 6.03 0 10.41-5 13.11-8.84 2.28 3.43 6.01 7.68 12.5 8.74 0.68 0.11 1.36 0.17 2.04 0.17 5.55 0 10.49-3.52 15.07-10.76 2.98 6.57 8.31 10.24 15.63 10.67 0.45 0.03 0.89 0.04 1.32 0.04 21.01 0 27.06-28.494 28.57-38.945 7.24-2.989 13.25-8.899 15.84-12.557 0.04-0.001 0.08-0.003 0.13-0.003 0.77 0 1.53 0.397 1.96 0.732-2.23 4.596-13.91 30.21-6.36 43.273 1.92 3.32 5.91 7.27 13.98 7.27 0.84 0 1.75-0.04 2.69-0.13 4.78-0.47 8.81-3.62 11.75-6.57 1.91 2.45 5.14 5.05 8.05 6.29 5.75 2.45 11.57 3.69 17.32 3.69 6.83 0 12.96-1.83 16.03-4.76 3.37-3.25 7.4-14.048 5.42-18.969-0.7-1.753-2.06-3.008-3.75-3.514 2.19-6.69 2.89-13.729 2.1-20.951l-0.01-0.108v-0.021l-0.02-0.123v-0.041c-1.29-7.34-4.92-12.051-7.57-15.488-1.35-1.758-2.74-3.572-2.7-4.459 0.09-2.229-0.75-4.446-2.32-6.086-1.56-1.64-3.75-2.578-5.98-2.578-4.4 0-6.71 3.763-7.6 5.189l-0.15 0.256c-0.65 0.977-1.55 2.488-1.55 2.488-3 4.945-5.48 9.695-8.11 14.721l-0.09 0.15c-2.16 4.16-4.62 8.877-7.56 13.975l-0.57 0.967c-4.49 7.66-6.16 10.527-10.71 15.797l-0.08 0.085-0.05 0.059-0.05 0.065-0.06 0.093c-1.1 1.503-2.04 2.389-2.68 2.869-0.18-3.135 2.75-10.573 8.73-22.162l0.07-0.148c0.86-1.673 1.61-3.114 2.14-4.25l0.04-0.076v-0.012l0.05-0.102 0.01-0.037c0.33-0.803 0.69-1.608 1.05-2.412l0.1-0.211c2.27-5.008 5.37-11.867 0.73-19.217l-0.07-0.107-0.02-0.027c-2.51-3.687-7.33-5.633-13.96-5.633-2.93 0-5.29 0.379-6.43 0.607-0.54 0.105-1.06 0.25-1.54 0.405-1.55-2.72-3.98-3.379-5.89-3.407l-0.16-0.002c-1.86 0-6.4 0.632-8.33 6.508l-0.14 0.43c-0.57 1.78-1.75 5.469-4.28 8.529-3.19-10.03-12.8-14.983-21.63-15.435-0.36-0.019-0.72-0.026-1.09-0.026-7.73 0-21.36 4.303-25.8 33.119-1.5 9.779-6.41 17.366-9.63 17.366-0.14 0-0.27-0.013-0.42-0.043-0.51-0.875-2.23-5.032-1.33-20.444 0.52-9.067 1.67-17.349 2.18-20.759h0.84l0.3 0.009c0.66 0.017 1.31 0.032 1.89 0.032 0.5 0 0.96-0.011 1.37-0.038h0.81c4.06 0 7.36-3.303 7.36-7.359v-1.084c0-4.057-3.3-7.355-7.36-7.355h-3.83c0.13-1.193 0.28-2.477 0.4-3.455 0.44-3.615 0.85-7.028 0.65-9.17-0.46-4.689-5.21-9.914-11.29-9.914-2.69 0-5.24 1.066-7.35 3.089-2.75 2.627-3.41 7.695-4.15 15.731-0.11 1.126-0.24 2.532-0.38 3.719h-4.7c-4.06 0-7.36 3.298-7.36 7.355v1.084c0 4.056 3.3 7.359 7.36 7.359h3.37c-0.06 7.25-1.58 23.687-4.29 34.809 1.06-11.36 2.24-26.322-3.52-35.137l-0.06-0.084-0.04-0.06-0.09-0.121c-1.9-2.488-3.97-3.012-5.37-3.012-0.32 0-0.63 0.025-0.94 0.076-3.06-2.876-6.84-4.852-10.53-5.474-1.18-0.198-2.37-0.299-3.529-0.299-7.776 0-14.314 4.591-18.893 13.099-0.102-1.083-0.203-2.054-0.291-2.884l-0.093-0.875-0.014-0.127-0.004-0.03c-0.759-5.491-4.155-8.673-9.596-8.965-0.191-0.006-0.39-0.013-0.592-0.013-7.668 0-24.477 7.959-27.32 18.851-0.904 3.473-1.054 10.013 7.649 15.672-0.603 3.071-1.653 5.387-3.288 7.256-1.475 1.718-3.34 2.699-5.115 2.699-0.57 0-1.14-0.104-1.72-0.324l-0.147-0.049-0.07-0.023c-1.813-0.568-6.667-4.876-10.219-12.69-2.851-6.278-6.654-19.045-0.076-34.007 1.297-2.953 7.916-10.723 15.133-10.723 0.445 0 0.88 0.028 1.295 0.084 2.285 0.312 2.682 2.875 2.744 3.424 0.051 0.397 0.061 0.939 0.074 1.552 0.029 1.762 0.064 3.955 1.236 6.108l0.078 0.144 0.051 0.09 0.057 0.084 0.099 0.143c1.895 2.679 4.661 4.217 7.629 4.217l0.051-0.002c0.041 0.002 0.086 0.002 0.127 0.002 5.231 0 20.479-10.949 20.799-17.395 0.18-4.31-4.289-9.503-6.219-11.535-3.555-3.749-13.47-12.457-28.713-12.457zm57.667 61.57c0.91 0 1.78 0.625 2 0.92 0.84 2.161 1.85 19.837-2.54 26.783-0.96 1.527-1.6 1.529-1.869 1.532-0.741 0-1.223-0.217-1.721-0.772-2.185-2.436-2.798-8.952-2.265-13.85 1.098-10.093 4.006-14.613 6.395-14.613zm76.92 10.088c2.71 2.513 6.09 4.097 10.09 4.725-0.94 3.747-3.23 9.683-6.91 12.572l-0.12 0.098-0.04 0.043c-0.2 0.173-0.59 0.349-0.71 0.363-0.25-0.118-0.99-1.116-1.5-3.313l-0.04-0.16-0.03-0.113-0.04-0.109-0.05-0.145c-0.91-2.532-1.14-8.946-0.65-13.961zm92.71 5.553c0.42 4.93-0.07 11.472-2.99 15.5-2.16 2.974-5.02 4.359-9.04 4.359-1.27 0-2.47-0.139-3.46-0.283 1.27-1.639 2.59-3.329 3.93-4.9 1.46-1.805 3.19-4.042 4.86-6.207l0.06-0.082c1.89-2.435 4.44-5.743 6.64-8.387z" transform="matrix(0 .8 .8 0 183.59 800.13)" fill="#fa4616"/><path d="m44.533 3.1367c-2.631 0-5.33 0.2753-8.021 0.8203-17.809 3.6088-30.035 21.784-32.498 37.057-5.5528 34.412 10.383 62.966 28.332 69.676 2.932 1.1 6.288 1.68 9.701 1.68 5.09 0 9.912-1.29 13.58-3.63 10.642-6.77 16.698-15.35 20.066-23.97-0.14 9.266 1.768 16.31 5.709 21.01 3.552 4.24 8.68 6.49 14.836 6.49 5.492 0 10.972-1.85 13.562-3.69 2.72 2.23 6.81 3.7 10.6 3.71 5.98 0 10.23-5.86 13.17-10.4 2.04 3.45 5.45 9.13 12.74 10.32 0.58 0.1 1.16 0.15 1.73 0.15 4.9 0 9.35-3.27 13.59-10 0.7-1.11 1.33-2.21 1.9-3.233 1.47 5.293 5.06 12.533 15.33 13.143 0.41 0.02 0.81 0.04 1.21 0.04 20.52 0 25.85-30.487 26.89-38.427 7.86-2.886 14.13-9.459 16.29-12.684 0.32-0.262 0.78-0.394 1.36-0.394 1.62 0 3.29 1 3.84 1.939 0.26 0.433 0.17 0.649 0.07 0.848-0.16 0.267-14.44 28.771-6.71 42.138 1.67 2.9 5.18 6.35 12.38 6.35 0.8 0 1.64-0.04 2.51-0.12 4.54-0.45 8.52-3.64 12.23-7.74 0.9 2.23 4.77 6.02 8.46 7.59 5.53 2.35 11.11 3.55 16.61 3.55 6.26 0 12.05-1.67 14.75-4.25 2.96-2.85 6.65-12.827 4.99-16.952-0.65-1.637-2.06-2.615-3.76-2.615-0.26 0-0.54 0.025-0.81 0.074 2.7-7.057 3.66-14.627 2.81-22.412l-0.02-0.088-0.01-0.086c-1.21-6.892-4.67-11.395-7.2-14.685-1.77-2.293-3.16-4.104-3.1-5.662 0.08-1.725-0.57-3.451-1.8-4.731-1.22-1.279-2.92-2.012-4.65-2.012-3.37 0-5.23 3.017-6.02 4.307-0.08 0.116-0.14 0.222-0.19 0.309-0.64 0.956-1.51 2.429-1.51 2.429-3 4.949-5.5 9.721-8.14 14.772-2.3 4.412-4.69 8.976-7.61 14.054l-0.56 0.965c-4.56 7.777-6.27 10.684-10.92 16.073l-0.08 0.086-0.07 0.093c-2.18 3.002-4.07 4.094-4.81 4.094-0.07 0-0.1-0.012-0.13-0.019-0.4-0.134-0.59-0.318-0.75-0.7-1.79-4.403 5.51-18.552 8.62-24.593 0.89-1.718 1.65-3.202 2.19-4.34l0.03-0.067 0.03-0.068c0.36-0.895 0.77-1.789 1.17-2.688 2.21-4.886 4.97-10.967 0.86-17.476l-0.03-0.041-0.02-0.039c-2.72-3.991-8.28-4.83-12.45-4.83-2.78 0-5 0.358-6.08 0.572-0.74 0.146-1.46 0.387-2.15 0.621-0.22 0.076-0.49 0.167-0.75 0.246-0.43-1.284-1.51-3.781-4.91-3.834l-0.1-0.004h-0.03c-1.81 0-5.08 0.685-6.58 5.242l-0.13 0.418c-0.77 2.387-2.56 7.984-7.08 11.563-1.77-11.141-11.44-16.718-20.68-17.19-0.33-0.016-0.66-0.023-1-0.023-7.14 0-19.75 4.101-23.98 31.559-1.58 10.256-6.82 18.923-11.45 18.923-0.47 0-0.94-0.086-1.44-0.267-0.03-0.013-3.34-1.836-2.15-22.166 0.56-9.629 1.85-18.86 2.45-22.49h2.46l0.3 0.007c0.64 0.018 1.27 0.032 1.84 0.032 0.48 0 0.91-0.012 1.3-0.039h0.88c3.04 0 5.52-2.475 5.52-5.518v-1.084c0-3.041-2.48-5.516-5.52-5.516h-5.84c0.1-1.538 0.38-3.816 0.59-5.502 0.42-3.517 0.82-6.841 0.63-8.785-0.38-3.896-4.5-8.254-9.45-8.254-2.21 0-4.31 0.892-6.08 2.582-2.28 2.178-2.9 7.184-3.59 14.565-0.17 1.776-0.38 4.049-0.61 5.389-0.19 0-0.37 0.002-0.5 0.005h-5.8c-3.04 0-5.52 2.475-5.52 5.516v1.084c0 3.043 2.48 5.518 5.52 5.518h5.03c0.05 0.003 0.11 0.008 0.16 0.011 0.28 7.397-2.46 40.092-8.46 47.643-0.08 0.101-0.16 0.189-0.23 0.269-0.11-2.286 0.29-6.612 0.63-10.238 1.06-11.215 2.51-26.572-3.11-35.158l-0.06-0.086-0.06-0.078c-1.15-1.518-2.47-2.285-3.9-2.285-0.57 0-1.07 0.12-1.48 0.283-2.9-2.999-6.64-5.092-10.29-5.707-1.09-0.181-2.18-0.275-3.229-0.275-9.011 0-16.142 6.869-20.279 19.179-0.07-4.297-0.457-7.977-0.737-10.613l-0.092-0.877-0.005-0.047-0.006-0.047c-0.644-4.65-3.279-7.133-7.834-7.377-0.172-0.007-0.347-0.013-0.53-0.013-6.997 0-22.951 7.554-25.541 17.472-0.998 3.832-0.409 9.375 7.877 14.291-0.015 0.114-0.027 0.233-0.041 0.338l-0.017 0.154c-0.636 3.79-1.853 6.608-3.842 8.883-1.826 2.125-4.199 3.342-6.51 3.342-0.791 0-1.578-0.143-2.342-0.432l-0.072-0.027-0.074-0.021c-2.481-0.779-7.641-5.54-11.344-13.686-2.979-6.557-6.952-19.893-0.086-35.512 1.479-3.363 8.655-11.82 16.819-11.82 0.516 0 1.034 0.033 1.541 0.102 3.825 0.521 4.296 4.744 4.324 5.005 0.067 0.512 0.076 1.12 0.088 1.762 0.027 1.645 0.059 3.509 1.015 5.264l0.077 0.144 0.093 0.131c1.545 2.184 3.765 3.438 6.086 3.438l0.096-0.002c0.039 0.002 0.08 0.002 0.119 0.002 4.314 0 18.7-10.398 18.959-15.596v-0.002c0-0.011 0.002-0.024 0.002-0.035 0.124-2.945-2.865-7.189-5.715-10.191-3.392-3.574-12.851-11.883-27.377-11.883zm141.68 54.328c0.76 0.205 2.02 0.875 3.28 2.228 1.29 1.388 2.04 2.724 2.38 3.612-1.01-0.308-2.46-1.093-3.68-2.405-1.32-1.427-1.84-2.721-1.98-3.435zm-84.01 3.562c1.71 0 3.22 1.13 3.64 1.926 1.18 2.505 2.11 21.113-2.62 28.602-1.35 2.132-2.59 2.381-3.429 2.386-1.264 0-2.246-0.441-3.092-1.384-2.686-2.995-3.295-10.017-2.722-15.276 1.106-10.177 4.182-16.254 8.223-16.254zm75.72 7.721c0.37 0.534 0.8 1.099 1.29 1.664 3 3.396 7.09 5.294 12.2 5.666-0.56 3.688-3.15 11.831-7.92 15.58l-0.06 0.053-0.07 0.059c-0.44 0.388-1.25 0.81-2 0.81-1.92 0.003-2.9-3.306-3.23-4.726l-0.03-0.161-0.06-0.152c-1.39-3.844-1.26-13.942-0.12-18.793zm95.13 5.559c1.04 4.541 1.67 14.747-2.72 20.783-2.5 3.444-5.94 5.12-10.52 5.12-1.62 0-3.12-0.21-4.26-0.386-0.33-0.054-0.66-0.106-0.96-0.156-0.61-0.108-1.16-0.198-1.64-0.25 0.63-0.793 1.25-1.59 1.86-2.389 1.39-1.776 2.7-3.45 4.03-5.008 1.42-1.75 3.08-3.894 4.84-6.169 2.72-3.527 6.86-8.897 9.37-11.545z" transform="matrix(0 .8 .8 0 183.59 800.13)" fill="#fff"/><path d="m45.518 5.9102c-2.664-0.0744-5.488 0.152-8.459 0.7539-16.002 3.2412-27.875 19.628-30.319 34.789-5.3448 33.125 9.842 60.387 26.574 66.647 6.407 2.4 15.053 1.99 20.831-1.69 26.881-17.116 22.937-46.5 21.88-56.623-0.211-1.531-0.699-4.757-5.244-4.998-8.667-0.46-36.832 15.312-16.004 26.981 0.963 0.63 0.805 1.464 0.631 2.904-0.631 3.799-1.898 7.328-4.478 10.279-2.903 3.376-7.436 5.382-11.92 3.695-7.818-2.45-24.959-26.035-13.129-52.941 2.07-4.707 11.134-14.721 21.258-13.34 4.605 0.626 6.425 4.799 6.685 7.381 0.265 2.004-0.156 4.323 0.793 6.063 0.896 1.267 2.322 2.323 3.955 2.269 2.902 0.211 16.293-9.808 16.293-12.971 0.182-3.474-10.699-18.678-29.347-19.199zm96.332 9.6388c-1.49-0.106-3.08 0.384-4.57 1.806-3 2.863-2.47 19.536-4.15 20.487-0.47 0.27-1.4 0.207-2.45 0.232h-5.8c-1.52 0-2.76 1.236-2.76 2.756v1.084c0 1.523 1.24 2.756 2.76 2.756h5.09c1.28 0.065 2.31 0.221 2.54 0.568 1.56 2.283-2.3 56.042-12.64 53.379-4.55-1.177 5.31-34.008-3.28-47.144-2.19-2.864-2.92 0.423-4.13-0.578-2.48-3.058-6.11-5.463-9.81-6.084-13.504-2.267-20.21 12.047-22.769 26.388-8.466 47.461 22.849 39.041 28.349 35.111 1.36-0.98 1.69-1.53 2.27-0.87 2.07 2.39 6.2 4.07 9.88 4.09 5.26 0.01 9.38-6.81 12.01-10.917 2.82-4.815 3.63 9.117 14.37 10.877 10.33 1.69 16.24-17.405 17.8-17.312 1.55 0.096-0.23 16.472 14.47 17.332 21.77 1.29 25.39-37.699 25.39-37.699 8.56-2.43 15.15-9.951 16.68-12.377 3.56-3.794 12.41 0.87 9.81 5.535-2.37 4.112-21.13 46.841 5.52 44.241 7.45-0.73 14.15-11.758 20.26-18.931 5.49-6.747 14.94-20.011 17.33-20.093 2-0.069 5.23 17.324-1.46 26.529-7.01 9.655-18.41 5.195-20.56 5.425-0.4 0.05-0.63 0.57-0.52 1.01 0.21 0.89 3.46 4.61 7 6.12 13.84 5.9 25.35 2.73 28.36-0.16 3-2.88 7.23-16.333 2.39-14.665-2.03 0.704-4.58 5.915-6.68 7.295-0.95 0.62-2.38 1.36-2.81 0.98 7.28-9.382 10.86-20.718 9.49-33.214-1.99-11.364-10.58-15.274-10.33-20.942 0.09-2.026-1.62-3.861-3.7-3.861-2.07 0-3.31 2.451-3.91 3.371s-1.45 2.344-1.45 2.344c-5.54 9.137-9.39 17.766-15.72 28.791-5.09 8.657-6.78 11.644-11.78 17.445-2.2 3.019-5.41 5.956-8.05 5.066-8.79-2.945 5-26.15 8.43-33.427 2.32-5.695 6.21-11.375 2.25-17.648-2.95-4.329-11.62-3.911-15.71-3.102-1.4 0.276-3.17 1.168-4.32 1.117-2.34-0.104-0.86-3.982-4.06-4.033-2.86-0.044-3.7 2.295-4.04 3.34-0.85 2.567-3.56 12.167-12.33 15.746 0.49-13.13-9.94-18.632-18.33-19.059-8.38-0.426-18.42 5.225-22.11 29.198-1.84 11.965-8.76 23.695-16.57 20.828-8.51-3.128-1.58-48.262-1.13-49.553 0.17-0.466 1.05-0.407 1.96-0.457h2.95c1.23 0.032 2.43 0.069 3.27 0h0.98c1.52 0 2.76-1.233 2.76-2.756v-1.084c0-1.52-1.24-2.756-2.76-2.756h-7.2c-0.51-0.039-0.91-0.105-1.12-0.232-1.16-0.736 1.31-12.857 0.96-16.549-0.24-2.399-3.04-5.512-6.32-5.744zm44.11 39.088c1.63 0.088 3.76 1.245 5.55 3.179 2.62 2.813 4.25 6.51 2.77 7.881-1.47 1.373-5.5-0.104-8.11-2.918-2.61-2.812-3.54-6.201-2.06-7.572 0.46-0.429 1.1-0.61 1.85-0.57zm-84.05 3.636c2.88-0.126 5.44 1.646 6.38 3.399 2.06 3.861 2.99 34.972-8.46 35.031-8.4 0.041-9.351-12.819-8.6-19.723 1.554-14.281 6.465-18.521 10.68-18.707zm75.9 5.514c1.36-0.014 2.79 9.841 15.99 9.594 1.72-0.033-1.21 14.637-8.6 20.449-2.11 1.879-7.66 3.62-9.75-5.351-1.72-4.738-1.99-22.582 2.23-24.659 0.04-0.021 0.09-0.032 0.13-0.033z" transform="matrix(0 .8 .8 0 183.59 800.13)" fill="#003087"/></g></g></svg>
